<svg id="Capa_1" data-name="Capa 1" xmlns="http://www.w3.org/2000/svg" xmlns:xlink="http://www.w3.org/1999/xlink" viewBox="0 0 1260.47 200"><defs><style>.cls-1{fill:#f2f2f2;}.cls-2{opacity:0.5;fill:url(#Degradado_sin_nombre_9);}.cls-3{fill:#c6c6c6;}</style><linearGradient id="Degradado_sin_nombre_9" x1="777.24" y1="63.41" x2="900.7" y2="118.02" gradientUnits="userSpaceOnUse"><stop offset="0" stop-opacity="0"/><stop offset="0.96" stop-opacity="0.93"/><stop offset="1"/></linearGradient></defs><path class="cls-1" d="M0,3H65.4c44.36,0,74.87,25.22,74.87,66.35s-30.51,66.34-74.87,66.34H0Zm63.5,97.81c18.77,0,31.66-11.18,31.66-31.46S82.27,37.91,63.5,37.91H44.73v62.93Z"/><path class="cls-1" d="M253.93,102v33.74H143.61V3H251.46V36.77H187.58V52.31H243.7V84.54H187.58V102Z"/><path class="cls-1" d="M251,69.38C251,28.62,282.29,0,324.94,0c26,0,46.44,9.48,59.51,26.53L356.21,51.74c-7.77-9.85-17.06-15.55-29-15.55-18.56,0-31.08,12.89-31.08,33.19s12.52,33.17,31.08,33.17c11.95,0,21.24-5.7,29-15.54l28.24,25.2c-13.07,17.06-33.55,26.55-59.51,26.55C282.29,138.76,251,110.13,251,69.38Z"/><path class="cls-1" d="M386.24,3H431v98h59.9v34.68H386.24Z"/><path class="cls-1" d="M595.57,112.6H545.14l-8.9,23.12H490.75L548.75,3h44l58,132.69H604.47ZM583.25,80.37,570.36,47,557.47,80.37Z"/><path class="cls-1" d="M688.76,102.36H676.63v33.36H631.9V3h63.88c37,0,60.48,19.34,60.48,50,0,19.16-9.11,33.56-25,41.71l27.88,41H711.33Zm4.18-64.84H676.63V68.61h16.31c12.32,0,18.2-5.87,18.2-15.55S705.26,37.52,692.94,37.52Z"/><path class="cls-1" d="M845,112.6H794.54l-8.9,23.12H740.15L798.15,3h44l58,132.69H853.87ZM832.65,80.37,819.76,47,806.87,80.37Z"/><path class="cls-2" d="M869.52,63.08,842.77,1.87H798L738.92,137h46.32l9.09-23.56h51.33L854.73,137h44.42l.84-4.22ZM806.86,80.61l13.14-34,13.11,34Z"/><path class="cls-3" d="M970.56,1.87,958,64.79,919.22,1.87H881.76L869.52,63.08,854.75,137h44.4l.84-4.22,11.69-58.71L950.49,137h37.44L1015,1.87Z"/><path class="cls-3" d="M1123.81,36.21l7-34.34H1020.93L993.91,137h112.34l6.94-34.37h-67.75l3.49-17.75h57.32l6.57-32.82h-57.14l3.08-15.84Z"/><path class="cls-3" d="M1135.79,1.87l-7.15,35.31h39.57L1148.32,137h45.56l19.88-99.81h39.57l7.14-35.31Z"/><path class="cls-3" d="M874.55,163.35c0-1.73,1.63-3.17,6.74-3.17a32.68,32.68,0,0,1,14.47,3.75L901,151.59c-5.41-3-12.6-4.4-19.59-4.4-16.1,0-24.18,7.65-24.18,17,0,18.82,28.7,13.71,28.7,20.05,0,1.73-1.78,2.74-6.74,2.74a36.44,36.44,0,0,1-17.14-4.62l-5.63,12.41c5.18,3.1,13.93,5.2,22.62,5.2,16.1,0,24.2-7.8,24.2-17C903.27,164.36,874.55,169.4,874.55,163.35Z"/><path class="cls-3" d="M942.12,195.62,945,198.2a34.41,34.41,0,0,1-11.19,1.8c-16.91,0-29.29-11.11-29.29-26.4,0-.57,0-1.13.05-1.68a25.12,25.12,0,0,1,2.36-9.33,22.6,22.6,0,0,1,1.76-3.15l4.56,2.81,1.55-.75,2.45.75v1.34l3.52,1.12V168l1.94,4.37,2.25,4.43-.19,1,1.11.34.47,2.24,3.13,3.73,2.35,1.51,1.95,1.88h.72l.61.87.61-.43,1.85.64L937,190l.17,1.28,2.09,2.36,2.26.39.37,1.13Z"/><path class="cls-3" d="M963.14,173.6a25.08,25.08,0,0,1-11.31,21.27l-1.2-3.8L948.81,189l-1.22-3.26,2.58-.39,1.27-.67-.66-1.26.2-1-1-.7-.15-3.51,1.22-1.56-.81-2.89.87-.19-.82-1.42.86-1.52-2.6-2.17-.52-4.08.82.07.31-.82-15.34,0-22.16-7.88c5.24-5.36,13.05-8.58,22.14-8.58C950.76,147.19,963.14,158.3,963.14,173.6Z"/><path class="cls-3" d="M1001.79,148.34v22.95l-19.74-22.95H967.66v50.5h17.06V175.91l19.75,22.93h14.4v-50.5Z"/><path class="cls-3" d="M1052.69,147.19c-16.92,0-29.32,11.11-29.32,26.41s12.4,26.4,29.32,26.4S1082,188.88,1082,173.6,1069.6,147.19,1052.69,147.19Zm0,39c-6.45,0-11.64-4.76-11.64-12.61s5.19-12.63,11.64-12.63,11.65,4.75,11.65,12.63S1059.15,186.21,1052.69,186.21Z"/><path class="cls-3" d="M1135.08,197.09l-9.67-13.83a16.88,16.88,0,0,0,9.79-15.88c0-11.68-9.2-19-23.67-19h-25v50.5H1104v-12.7h4.76l8.82,12.7h18.7Zm-24.66-23.78H1104V161.46h6.39c4.82,0,7.12,2.25,7.12,5.92S1115.24,173.31,1110.42,173.31Z"/><path class="cls-3" d="M1174.24,148.34H1157l-21.92,48.75-.77,1.75h17.8l3.49-8.8h19.75l3.48,8.8h18.1Zm-13.81,29.43,5-12.7,5,12.7Z"/></svg>